# xmcd
#
# Track frame offsets: 
#        150
#        16301
#        34488
#        52853
#        69022
#        85389
#        104314
#        127661
#        149903
#
# Disc length: 2309 seconds
#
# Revision: 0
# Processed by: cddbd v1.5.2PL0 Copyright (c) Steve Scherf et al.
# Submitted via: ExactAudioCopy v0.95a5
#
DISCID=73090309
DTITLE=Nelly Furtado - Loose
DYEAR=2006
DGENRE=R&B
TTITLE0=Afraid
TTITLE1=Glow
TTITLE2=Showtime
TTITLE3=No Hay Lgual
TTITLE4=To Busque (featuring Juanes)
TTITLE5=In God's Hands
TTITLE6=Wait For You
TTITLE7=Somebody To Love
TTITLE8=All Good Things(Come To An End)
EXTD=
EXTT0=
EXTT1=
EXTT2=
EXTT3=
EXTT4=
EXTT5=
EXTT6=
EXTT7=
EXTT8=
PLAYORDER=
